<?xml version="1.0" standalone="no"?>
<!DOCTYPE svg PUBLIC "-//W3C//DTD SVG 1.0//EN" "http://www.w3.org/TR/2001/REC-SVG-20010904/DTD/svg10.dtd">
<svg xmlns="http://www.w3.org/2000/svg" xmlns:xlink="http://www.w3.org/1999/xlink" id="body_1" width="102" height="77">

<defs>
    <linearGradient transform="matrix(1 0 0 1 0 0)"  id="1" x1="0" y1="0" x2="190.27" y2="0">
        <stop stop-color="#90CEA1" offset="0%"/>
        <stop stop-color="#00B3E5" offset="100%"/>
    </linearGradient>
</defs>

<g transform="matrix(0.09960938 0 0 0.1002604 0 0)">
    <path transform="matrix(5.382674 0 0 5.382674 0 164.6022)"  d="M105.67 36.06L172.57 36.06C 182.325 36.06 190.2345 28.15496 190.24 18.4C 190.24 8.641129 182.3289 0.7300014 172.57 0.73L172.57 0.73L105.67 0.73C 100.9836 0.7299976 96.4892 2.591654 93.17543 5.905421C 89.86166 9.219189 88.00001 13.71362 88 18.4C 88.00552 28.15496 95.91503 36.06 105.67 36.06zM17.67 81.06L94.57 81.06C 104.325 81.05999 112.2345 73.15496 112.24 63.4C 112.24 53.64113 104.3289 45.73 94.57 45.73L94.57 45.73L17.67 45.73C 12.98362 45.73 8.489191 47.59166 5.175423 50.90543C 1.861654 54.21919 0 58.71363 0 63.4C 0.005523682 73.15496 7.915034 81.06 17.67 81.06zM10.41 35.42L18.21 35.42L18.21 6.92L28.31 6.92L28.31 0L0.31 0L0.31 6.9L10.41 6.9zM38.51 35.42L46.31 35.42L46.31 8.25L46.41 8.25L55.41 35.4L61.41 35.4L70.71 8.250002L70.81 8.250002L70.81 35.4L78.61 35.4L78.61 0L66.76 0L58.56 23.1L58.46 23.1L50.31 0L38.51 0zM152.43 55.67C 151.3869 53.49474 149.8368 51.60168 147.91 50.15C 145.911 48.68818 143.6398 47.64098 141.23 47.07C 138.5905 46.4106 135.8806 46.0748 133.16 46.07L133.16 46.07L121.46 46.07L121.46 81.47L134.21 81.47C 136.7712 81.48237 139.3186 81.09435 141.76 80.32C 144.065 79.61854 146.2186 78.49255 148.11 77C 149.9498 75.50675 151.4412 73.62967 152.48 71.5C 153.6031 69.13367 154.1611 66.5388 154.11 63.92C 154.1915 61.07743 153.6166 58.25432 152.43 55.67zM145 68.6C 144.415 69.93441 143.5079 71.10269 142.36 72C 141.1669 72.87689 139.8049 73.49663 138.36 73.82C 136.7205 74.19771 135.0424 74.38229 133.36 74.37L133.36 74.37L129.31 74.37L129.31 53.37L133.91 53.37C 135.4884 53.36219 137.0601 53.57423 138.58 54C 139.9782 54.37698 141.294 55.01114 142.46 55.87C 143.5291 56.71131 144.3968 57.78064 145 59C 145.687 60.40609 146.0297 61.95537 146 63.52C 146.0439 65.26623 145.7025 67.00067 145 68.6zM189.63 68.47C 189.2768 67.50316 188.7403 66.61356 188.05 65.85C 187.3631 65.09067 186.5429 64.46365 185.63 64C 184.6344 63.49741 183.5638 63.15968 182.46 63L182.46 63L182.46 62.9C 184.1752 62.40754 185.7106 61.42793 186.88 60.08C 188.0327 58.67489 188.6304 56.89604 188.56 55.08C 188.6349 53.45135 188.2354 51.83598 187.41 50.43C 186.6568 49.28367 185.6244 48.34768 184.41 47.71C 183.1035 47.03532 181.6887 46.59531 180.23 46.41C 178.6997 46.1914 177.1559 46.08113 175.61 46.08L175.61 46.08L162.41 46.08L162.41 81.48L176.91 81.48C 178.4966 81.48088 180.0788 81.31328 181.63 80.98C 183.1402 80.67761 184.5877 80.11959 185.91 79.32999C 187.1615 78.58325 188.2227 77.55632 189.01 76.32999C 189.8532 74.91846 190.27 73.2931 190.21 71.64999C 190.2116 70.5662 190.0255 69.49031 189.66 68.47zM170.21 52.72L175.51 52.72C 176.1309 52.72243 176.7503 52.7827 177.36 52.9C 177.9514 53.00635 178.5241 53.19837 179.06 53.47C 179.5542 53.73954 179.9735 54.12789 180.28 54.6C 180.6177 55.14532 180.7849 55.77907 180.76 56.42C 180.7746 57.04707 180.6265 57.66722 180.33 58.22C 180.0603 58.70547 179.6758 59.11747 179.21 59.42C 178.7253 59.72715 178.1906 59.94714 177.63 60.07C 177.05 60.20665 176.4559 60.2738 175.86 60.27L175.86 60.27L170.21 60.27zM181.93 72.72C 181.6292 73.24172 181.2116 73.68668 180.71 74.02C 180.2017 74.36195 179.6307 74.59986 179.03 74.72C 178.4327 74.85457 177.8223 74.92165 177.21 74.92L177.21 74.92L170.21 74.92L170.21 66.92L176.11 66.92C 176.7792 66.92634 177.4473 66.97645 178.11 67.07C 178.8137 67.16665 179.5024 67.35143 180.16 67.62C 180.7733 67.87675 181.3129 68.28231 181.73 68.8C 182.1652 69.37364 182.3879 70.08051 182.36 70.8C 182.3921 71.46704 182.2435 72.13037 181.93 72.72z" stroke="none" fill="url(#1)" />
</g>
</svg>