<?xml version="1.0" encoding="UTF-8"?>
<svg xmlns="http://www.w3.org/2000/svg" xmlns:xlink="http://www.w3.org/1999/xlink" width="251pt" height="18pt" viewBox="0 0 251 18" version="1.1">
<defs>
<linearGradient id="linear0" gradientUnits="userSpaceOnUse" x1="0" y1="17.7" x2="489.04" y2="17.7" gradientTransform="matrix(0.507493,0,0,0.508475,1.407929,0)">
<stop offset="0" style="stop-color:rgb(56.470588%,80.784314%,63.137255%);stop-opacity:1;"/>
<stop offset="0.56" style="stop-color:rgb(23.529412%,74.509804%,78.823529%);stop-opacity:1;"/>
<stop offset="1" style="stop-color:rgb(0%,70.196078%,89.803922%);stop-opacity:1;"/>
</linearGradient>
</defs>
<g id="surface1">
<path style=" stroke:none;fill-rule:nonzero;fill:url(#linear0);" d="M 150.355469 0 L 154.875 0 L 159.3125 11.796875 L 159.363281 11.796875 L 163.882812 0 L 168.121094 0 L 160.710938 18 L 157.539062 18 Z M 174.007812 0 L 177.964844 0 L 177.964844 18 L 174.007812 18 Z M 185.273438 0 L 197.476562 0 L 197.476562 3.660156 L 189.230469 3.660156 L 189.230469 7.015625 L 197.019531 7.015625 L 197.019531 10.679688 L 189.230469 10.679688 L 189.230469 14.339844 L 197.933594 14.339844 L 197.933594 18 L 185.273438 18 Z M 213.183594 0 L 219.121094 0 C 220.503906 0.00390625 221.878906 0.171875 223.21875 0.507812 C 224.4375 0.785156 225.589844 1.304688 226.609375 2.035156 C 227.585938 2.773438 228.371094 3.738281 228.902344 4.847656 C 229.515625 6.160156 229.816406 7.601562 229.78125 9.050781 C 229.804688 10.382812 229.523438 11.703125 228.953125 12.90625 C 228.421875 13.988281 227.667969 14.941406 226.734375 15.703125 C 225.777344 16.46875 224.683594 17.050781 223.511719 17.414062 C 222.257812 17.8125 220.945312 18.011719 219.628906 18 L 213.179688 18 Z M 217.148438 14.339844 L 219.179688 14.339844 C 220.03125 14.34375 220.882812 14.25 221.714844 14.058594 C 222.449219 13.890625 223.140625 13.574219 223.746094 13.128906 C 224.332031 12.683594 224.796875 12.101562 225.101562 11.429688 C 225.457031 10.617188 225.628906 9.734375 225.609375 8.847656 C 225.625 8.050781 225.449219 7.265625 225.101562 6.550781 C 224.789062 5.914062 224.332031 5.359375 223.769531 4.933594 C 223.179688 4.492188 222.511719 4.167969 221.800781 3.976562 C 221.03125 3.765625 220.230469 3.65625 219.433594 3.660156 L 217.097656 3.660156 Z M 235.484375 0 L 242.183594 0 C 242.96875 0 243.753906 0.0546875 244.53125 0.164062 C 245.269531 0.261719 245.984375 0.484375 246.648438 0.824219 C 247.269531 1.144531 247.792969 1.625 248.171875 2.210938 C 248.59375 2.925781 248.796875 3.746094 248.753906 4.578125 C 248.792969 5.5 248.492188 6.402344 247.90625 7.117188 C 247.3125 7.804688 246.53125 8.300781 245.660156 8.550781 L 245.660156 8.601562 C 246.222656 8.679688 246.765625 8.851562 247.273438 9.113281 C 247.742188 9.347656 248.164062 9.664062 248.515625 10.050781 C 248.867188 10.441406 249.136719 10.890625 249.3125 11.382812 C 249.503906 11.90625 249.597656 12.457031 249.59375 13.011719 C 249.621094 13.847656 249.410156 14.671875 248.984375 15.390625 C 248.582031 16.015625 248.046875 16.539062 247.410156 16.917969 C 246.742188 17.320312 246.007812 17.601562 245.242188 17.757812 C 244.453125 17.921875 243.648438 18.007812 242.84375 18.011719 L 235.484375 18.011719 Z M 239.421875 7.195312 L 242.289062 7.195312 C 242.59375 7.195312 242.894531 7.160156 243.191406 7.09375 C 243.476562 7.03125 243.746094 6.917969 243.988281 6.761719 C 244.226562 6.609375 244.425781 6.402344 244.5625 6.152344 C 244.710938 5.871094 244.785156 5.554688 244.777344 5.238281 C 244.789062 4.910156 244.707031 4.589844 244.539062 4.3125 C 244.382812 4.070312 244.167969 3.871094 243.914062 3.738281 C 243.644531 3.59375 243.351562 3.496094 243.050781 3.441406 C 242.742188 3.386719 242.425781 3.359375 242.113281 3.355469 L 239.421875 3.355469 Z M 239.421875 14.644531 L 242.972656 14.644531 C 243.285156 14.640625 243.597656 14.609375 243.902344 14.542969 C 244.207031 14.480469 244.492188 14.359375 244.75 14.1875 C 245.003906 14.015625 245.21875 13.789062 245.375 13.527344 C 245.546875 13.214844 245.632812 12.863281 245.613281 12.507812 C 245.628906 12.144531 245.515625 11.785156 245.296875 11.492188 C 245.082031 11.234375 244.808594 11.03125 244.496094 10.90625 C 244.171875 10.769531 243.832031 10.675781 243.480469 10.628906 C 243.136719 10.578125 242.789062 10.550781 242.441406 10.550781 L 239.421875 10.550781 Z M 104.9375 17.964844 L 138.9375 17.964844 C 143.886719 17.964844 147.902344 13.945312 147.902344 8.984375 C 147.902344 4.023438 143.890625 0.00390625 138.9375 0 L 104.96875 0 C 100.015625 0.00390625 96.003906 4.023438 96.003906 8.984375 C 96.003906 13.945312 100.015625 17.964844 104.96875 17.964844 Z M 6.535156 3.507812 L 1.40625 3.507812 L 1.40625 0 L 15.617188 0 L 15.617188 3.507812 L 10.492188 3.507812 L 10.492188 18 L 6.535156 18 Z M 21.199219 0 L 25.160156 0 L 25.160156 6.710938 L 32.820312 6.710938 L 32.820312 0 L 36.78125 0 L 36.78125 18 L 32.820312 18 L 32.820312 10.21875 L 25.132812 10.21875 L 25.132812 18 L 21.199219 18 Z M 42.109375 0 L 54.289062 0 L 54.289062 3.660156 L 46.066406 3.660156 L 46.066406 7.015625 L 53.855469 7.015625 L 53.855469 10.679688 L 46.066406 10.679688 L 46.066406 14.339844 L 54.769531 14.339844 L 54.769531 18 L 42.082031 18 Z M 70.019531 0 L 76.007812 0 L 80.144531 11.746094 L 80.195312 11.746094 L 84.359375 0 L 90.320312 0 L 90.320312 18 L 86.363281 18 L 86.363281 4.195312 L 86.3125 4.195312 L 81.589844 18 L 78.570312 18 L 74.003906 4.195312 L 73.980469 4.195312 L 73.980469 18 L 70.019531 18 Z M 70.019531 0 "/>
</g>
</svg>
